<svg width="30" height="25" viewBox="0 0 30 25" fill="none" xmlns="http://www.w3.org/2000/svg">
<path d="M29 23H27V11.4375C27.0007 11.1587 26.942 10.883 26.8277 10.6286C26.7135 10.3743 26.5464 10.1472 26.3375 9.96252L16.3375 0.87502C15.9709 0.538589 15.4914 0.351929 14.9937 0.351929C14.4961 0.351929 14.0166 0.538589 13.65 0.87502L3.65 9.96252C3.44526 10.1498 3.28173 10.3777 3.16983 10.6316C3.05792 10.8856 3.00009 11.16 3 11.4375V23H1C0.734784 23 0.48043 23.1054 0.292893 23.2929C0.105357 23.4804 0 23.7348 0 24C0 24.2652 0.105357 24.5196 0.292893 24.7071C0.48043 24.8947 0.734784 25 1 25H29C29.2652 25 29.5196 24.8947 29.7071 24.7071C29.8946 24.5196 30 24.2652 30 24C30 23.7348 29.8946 23.4804 29.7071 23.2929C29.5196 23.1054 29.2652 23 29 23ZM18 23H12V17C12 16.7348 12.1054 16.4804 12.2929 16.2929C12.4804 16.1054 12.7348 16 13 16H17C17.2652 16 17.5196 16.1054 17.7071 16.2929C17.8946 16.4804 18 16.7348 18 17V23Z" fill="#40B1FF"/>
</svg>
