<svg width="206" height="46" viewBox="0 0 206 46" fill="none" xmlns="http://www.w3.org/2000/svg">
<path d="M54.3471 26.569L48.4068 33.5087V26.569H44.354V40.4484H47.4075L53.3478 33.5087V40.4484H57.4006V26.569H54.3471Z" fill="#FF6200"/>
<path d="M69.3389 26.569V31.5656H64.62V26.569H60.4562V40.4484H64.62V35.4518H69.3389V40.4484H73.5027V26.569H69.3389Z" fill="#FF6200"/>
<path d="M96.1282 40.4484L91.5202 33.5087L95.8506 26.569H91.2427L87.7451 32.5094V26.569H83.6923V32.5094L80.1947 26.569H75.5868L79.9171 33.5087L75.3092 40.4484H79.9171L83.6923 34.4247V40.4484H87.7451V34.4247L91.5202 40.4484H96.1282Z" fill="#FF6200"/>
<path d="M107.913 26.569L101.972 33.5087V26.569H97.9195V40.4484H100.973L106.913 33.5087V40.4484H110.966V26.569H107.913Z" fill="#FF6200"/>
<path d="M122.904 26.569V31.5656H118.185V26.569H114.022V40.4484H118.185V35.4518H122.904V40.4484H127.068V26.569H122.904Z" fill="#FF6200"/>
<path d="M140.117 26.569L134.177 33.5087V26.569H130.124V40.4484H133.177L139.118 33.5087V40.4484H143.17V26.569H140.117Z" fill="#FF6200"/>
<path d="M154.526 26.1804C152.666 26.1804 151.306 26.8189 150.39 27.8737V26.569H146.226V46.0001H150.39V39.1437C151.306 40.1985 152.666 40.837 154.526 40.837C158.162 40.837 161.16 37.6447 161.16 33.5087C161.16 29.3727 158.162 26.1804 154.526 26.1804ZM153.693 36.8952C151.778 36.8952 150.39 35.5906 150.39 33.5087C150.39 31.4268 151.778 30.1221 153.693 30.1221C155.608 30.1221 156.996 31.4268 156.996 33.5087C156.996 35.5906 155.608 36.8952 153.693 36.8952Z" fill="#FF6200"/>
<path d="M173.514 26.569L167.574 33.5087V26.569H163.521V40.4484H166.574L172.515 33.5087V40.4484H176.567V26.569H173.514Z" fill="#FF6200"/>
<path d="M188.506 26.569V31.5656H183.787V26.569H179.623V40.4484H183.787V35.4518H188.506V40.4484H192.67V26.569H188.506Z" fill="#FF6200"/>
<path d="M205.441 26.569H195.725V40.4484H199.889V30.5663H205.441V26.569Z" fill="#FF6200"/>
<path fill-rule="evenodd" clip-rule="evenodd" d="M57.7941 15.9051C56.601 18.0676 54.2432 19.4805 51.526 19.4805C47.31 19.4805 44.1768 16.2941 44.1768 12.1643C44.1768 8.03603 47.31 4.84814 51.526 4.84814C54.2164 4.84814 56.601 6.26101 57.7941 8.3952L54.1612 10.5011C53.6899 9.53235 52.6908 8.94962 51.4708 8.94962C49.6693 8.94962 48.3376 10.2522 48.3376 12.1643C48.3376 14.0765 49.6678 15.379 51.4708 15.379C52.6908 15.379 53.7168 14.7963 54.1612 13.8261L57.7941 15.9051ZM58.2087 5.23564H70.6881V9.22683H66.5556V19.093H62.3963V9.22683H58.2087V5.23564ZM76.6504 6.53971C77.5661 5.48602 78.9247 4.84814 80.7829 4.84814V4.85113C84.4158 4.85113 87.4104 8.03752 87.4104 12.1673C87.4104 16.2956 84.4158 19.4835 80.7829 19.4835C78.9247 19.4835 77.5661 18.8456 76.6504 17.7919V24.6372H72.4911V5.23713H76.6504V6.53971ZM76.6504 12.1643C76.6504 14.2434 78.0374 15.546 79.9507 15.546C81.8641 15.546 83.2511 14.2434 83.2511 12.1643C83.2511 10.0853 81.8641 8.7827 79.9507 8.7827C78.0374 8.7827 76.6504 10.0853 76.6504 12.1643ZM103.773 12.1658C103.773 16.2941 100.5 19.482 96.424 19.482C92.3467 19.482 89.0747 16.2956 89.0747 12.1658C89.0747 8.03752 92.3467 4.84964 96.424 4.84964C100.501 4.84964 103.773 8.03603 103.773 12.1658ZM93.234 12.1658C93.234 14.1331 94.6209 15.4357 96.424 15.4357C98.2255 15.4357 99.6124 14.1331 99.6124 12.1658C99.6124 10.1985 98.227 8.89597 96.424 8.89597C94.6209 8.89597 93.234 10.1985 93.234 12.1658ZM116.807 3.6022H108.487V0H116.807V3.6022ZM110.18 12.1658L116.114 5.23713H119.164V19.0945H115.115V12.1658L109.181 19.0945H106.131V5.23713H110.18V12.1658Z" fill="white"/>
<path fill-rule="evenodd" clip-rule="evenodd" d="M33.9055 24.388H32.121V36.8793C32.121 38.8475 30.5203 40.4482 28.552 40.4482H7.1377C5.16937 40.4482 3.56866 38.8475 3.56866 36.8793V24.388H1.78414C1.43125 24.3879 1.08631 24.2832 0.792913 24.0872C0.499521 23.8911 0.270853 23.6124 0.135816 23.2864C0.000783673 22.9604 -0.0345557 22.6016 0.0342691 22.2555C0.103094 21.9094 0.272989 21.5915 0.522482 21.3419L16.5832 5.28175C16.7488 5.11589 16.9454 4.98431 17.1619 4.89453C17.3784 4.80476 17.6105 4.75854 17.8448 4.75854C18.0792 4.75854 18.3113 4.80476 18.5277 4.89453C18.7442 4.98431 18.9409 5.11589 19.1065 5.28175L35.1672 21.3419C35.4167 21.5915 35.5866 21.9094 35.6554 22.2555C35.7242 22.6016 35.6889 22.9604 35.5538 23.2864C35.4188 23.6124 35.1901 23.8911 34.8967 24.0872C34.6033 24.2832 34.2584 24.3879 33.9055 24.388ZM17.8448 9.0666L7.1377 19.7734V27.9569L7.13592 36.8793H28.552V19.7734L17.8448 9.0666Z" fill="white"/>
<path d="M26 26.3333H23.3846L20.1154 19L14.8846 33L11.6154 26.3333H9" stroke="#FF6200" stroke-width="3" stroke-linecap="round" stroke-linejoin="round"/>
</svg>
