<svg width="61" height="61" viewBox="0 0 61 61" fill="none" xmlns="http://www.w3.org/2000/svg">
<path d="M30.5 5.71875C25.5987 5.71875 20.8075 7.17215 16.7323 9.89514C12.657 12.6181 9.48076 16.4884 7.60512 21.0166C5.72949 25.5448 5.23874 30.5275 6.19493 35.3346C7.15112 40.1417 9.5113 44.5573 12.977 48.023C16.4427 51.4887 20.8583 53.8489 25.6654 54.8051C30.4725 55.7613 35.4552 55.2705 39.9834 53.3949C44.5116 51.5193 48.3819 48.343 51.1049 44.2677C53.8279 40.1925 55.2813 35.4013 55.2813 30.5C55.2687 23.9315 52.6537 17.6356 48.0091 12.9909C43.3644 8.34626 37.0685 5.73135 30.5 5.71875ZM42.2949 26.1633L28.3317 39.507C27.9707 39.8466 27.4929 40.0343 26.9973 40.0312C26.755 40.0347 26.5145 39.9902 26.2896 39.9002C26.0646 39.8102 25.8598 39.6766 25.6867 39.507L18.7051 32.8352C18.5114 32.6662 18.354 32.4599 18.2421 32.2285C18.1302 31.9971 18.0663 31.7455 18.0542 31.4888C18.042 31.2321 18.0819 30.9756 18.1714 30.7347C18.2609 30.4938 18.3982 30.2735 18.5751 30.0871C18.7519 29.9006 18.9646 29.7518 19.2004 29.6496C19.4362 29.5475 19.6902 29.494 19.9472 29.4925C20.2042 29.491 20.4588 29.5415 20.6958 29.6409C20.9328 29.7404 21.1472 29.8867 21.3262 30.0711L26.9973 35.4801L39.6738 23.3992C40.0445 23.0758 40.5258 22.9083 41.0171 22.9315C41.5085 22.9548 41.9718 23.167 42.3103 23.524C42.6487 23.8809 42.8361 24.3548 42.8333 24.8467C42.8304 25.3386 42.6375 25.8103 42.2949 26.1633Z" fill="#40B1FF"/>
</svg>
