<svg width="22" height="22" viewBox="0 0 22 22" fill="none" xmlns="http://www.w3.org/2000/svg">
<path d="M12.7935 6.12272C12.3019 5.63546 12.0311 4.98707 12.0311 4.29705C12.0311 3.60686 12.3019 2.95864 12.7935 2.47138L15.0356 0.249093C15.3728 -0.084922 15.9168 -0.0825722 16.251 0.254632C16.585 0.591668 16.5826 1.13583 16.2454 1.46984L14.3034 3.39471H17.2713C19.8754 3.39471 21.9956 5.51327 21.9978 8.11724L21.9998 10.4837C22.0002 10.9584 21.6158 11.3434 21.1411 11.3438C21.1413 11.3438 21.141 11.3438 21.1411 11.3438C20.6668 11.3438 20.2814 10.9596 20.2811 10.4852L20.2791 8.11875C20.2777 6.4616 18.9284 5.11346 17.2713 5.11346H14.2167L16.2454 7.12409C16.5826 7.45827 16.585 8.00226 16.251 8.33947C16.0829 8.50899 15.8617 8.59392 15.6405 8.59392C15.4218 8.59392 15.2031 8.51101 15.0356 8.34484L12.7935 6.12272ZM20.9997 15.4907C19.7994 14.3334 18.7938 13.6654 17.8351 13.3883C16.514 13.0066 15.2904 13.3537 14.1982 14.4204C14.1965 14.4219 14.195 14.4236 14.1933 14.4253L13.0303 15.5794C12.3079 15.1737 10.9037 14.2806 9.36793 12.7448L9.25481 12.6318C7.72909 11.1061 6.83044 9.69382 6.42157 8.96856L7.57484 7.80672C7.57635 7.80504 7.57803 7.80337 7.5797 7.80169C8.6462 6.70968 8.9933 5.48607 8.61162 4.16479C8.33451 3.20605 7.66648 2.20048 6.50918 1.00037C5.91803 0.387398 5.12395 0.0329063 4.27297 0.00219033C3.42166 -0.0286935 2.60442 0.267892 1.97063 0.836724L1.94596 0.85888C1.93454 0.869286 1.92347 0.87986 1.91256 0.890603C0.651027 2.15214 -0.0102855 3.91822 0.000120947 5.99801C0.0177447 9.53101 1.95955 13.5712 5.19411 16.8058C5.80406 17.4158 6.49743 18.0195 7.25442 18.5999C7.63123 18.8888 8.17052 18.8175 8.45938 18.4408C8.74808 18.0642 8.67691 17.5247 8.30027 17.236C7.6027 16.7013 6.96656 16.1475 6.40948 15.5906C3.48779 12.6689 1.7343 9.07967 1.71886 5.98945C1.71081 4.38786 2.19269 3.05079 3.11232 2.12159L3.11887 2.11572C3.74359 1.55494 4.68923 1.58901 5.27182 2.19343C7.49696 4.50082 7.33566 5.59014 6.35242 6.59839L4.75956 8.20318C4.5098 8.45478 4.44015 8.83428 4.5845 9.15822C4.62495 9.24903 5.60332 11.4109 8.03994 13.8475L8.1529 13.9605C10.5892 16.3968 12.751 17.375 12.8418 17.4154C13.1658 17.5596 13.5451 17.4903 13.7969 17.2404L15.4018 15.6473C16.4101 14.6643 17.4992 14.5031 19.8066 16.7279C20.4108 17.3107 20.4449 18.2563 19.8845 18.8809L19.8784 18.8876C18.9568 19.7999 17.6342 20.2812 16.0499 20.2812C16.0368 20.2812 16.0237 20.2812 16.0106 20.2811C14.7442 20.2749 13.2779 19.9278 11.7701 19.2774C11.3344 19.0894 10.8285 19.2903 10.6407 19.726C10.4527 20.1619 10.6536 20.6675 11.0894 20.8555C12.8323 21.6072 14.4851 21.9923 16.002 21.9998C16.0182 22 16.0343 22 16.0504 22C18.1092 22 19.8576 21.3392 21.1094 20.0876C21.1202 20.0766 21.1307 20.0654 21.1411 20.054L21.1633 20.0291C21.7321 19.3955 22.0285 18.5779 21.9978 17.727C21.9669 16.876 21.6125 16.0819 20.9997 15.4907Z" fill="#FF6200"/>
</svg>
