<svg width="24" height="23" viewBox="0 0 24 23" fill="none" xmlns="http://www.w3.org/2000/svg">
<path d="M12 23C18.6274 23 24 17.8513 24 11.5C24 5.14873 18.6274 0 12 0C5.37258 0 0 5.14873 0 11.5C0 17.8513 5.37258 23 12 23Z" fill="#F0F0F0"/>
<path d="M23.2536 15.5C23.736 14.2541 24 12.9067 24 11.5C24 10.0933 23.736 8.74582 23.2536 7.5H0.746391C0.264047 8.74582 0 10.0933 0 11.5C0 12.9067 0.264047 14.2541 0.746391 15.5L12 16.5L23.2536 15.5Z" fill="#0052B4"/>
<path d="M12.0002 23C17.1598 23 21.5583 19.8792 23.2538 15.5H0.746582C2.4421 19.8792 6.84061 23 12.0002 23Z" fill="#D80027"/>
</svg>
