<svg width="24" height="23" viewBox="0 0 24 23" fill="none" xmlns="http://www.w3.org/2000/svg">
<path d="M0 11.5C0 12.9067 0.264047 14.2541 0.746391 15.5L12 16.5L23.2536 15.5C23.736 14.2541 24 12.9067 24 11.5C24 10.0933 23.736 8.74582 23.2536 7.50001L12 6.5L0.746391 7.50001C0.264047 8.74582 0 10.0933 0 11.5H0Z" fill="#FFDA44"/>
<path d="M23.2538 7.50002C21.5583 3.12086 17.1598 0 12.0002 0C6.84061 0 2.4421 3.12086 0.746582 7.50002H23.2538Z" fill="#D80027"/>
<path d="M0.746582 15.5C2.4421 19.8792 6.84061 23 12.0002 23C17.1598 23 21.5583 19.8792 23.2538 15.5H0.746582Z" fill="#D80027"/>
</svg>
