<svg width="24" height="22" viewBox="0 0 24 22" fill="none" xmlns="http://www.w3.org/2000/svg">
<g clip-path="url(#clip0_5_1502)">
<path d="M12 22C18.6274 22 24 17.0751 24 11C24 4.92487 18.6274 0 12 0C5.37258 0 0 4.92487 0 11C0 17.0751 5.37258 22 12 22Z" fill="#F0F0F0"/>
<path d="M12 22C18.6274 22 24 17.0751 24 11C24 9.65449 23.736 8.36556 23.2536 7.17395H0.746391C0.264047 8.36556 0 9.65449 0 11C0 17.0751 5.37262 22 12 22Z" fill="#0052B4"/>
<path d="M12.0002 22C17.1598 22 21.5583 19.0149 23.2538 14.826H0.746582C2.4421 19.0149 6.84061 22 12.0002 22Z" fill="#D80027"/>
<path d="M3.10303 6.21741V11.7048C3.10303 14.8262 7.55151 15.7826 7.55151 15.7826C7.55151 15.7826 11.9999 14.8262 11.9999 11.7048V6.21741H3.10303Z" fill="#F0F0F0"/>
<path d="M4.14648 6.21741V11.7048C4.14648 12.0712 4.23527 12.4173 4.41114 12.7417H10.6918C10.8677 12.4173 10.9564 12.0712 10.9564 11.7048V6.21741H4.14648Z" fill="#D80027"/>
<path d="M9.63825 10.0435H8.07309V9.08696H9.11658V8.13043H8.07309V7.17395H7.02961V8.13043H5.98617V9.08696H7.02961V10.0435H5.46436V11H7.02961V11.9565H8.07309V11H9.63825V10.0435Z" fill="#F0F0F0"/>
<path d="M5.8344 14.077C6.50682 14.4643 7.19766 14.6892 7.55134 14.7893C7.90501 14.6893 8.59585 14.4643 9.26827 14.077C9.94637 13.6863 10.4217 13.2395 10.6916 12.7417C10.3939 12.5487 10.0307 12.4348 9.63831 12.4348C9.49543 12.4348 9.35663 12.4503 9.22318 12.4788C8.94038 11.8898 8.29843 11.4783 7.55138 11.4783C6.80434 11.4783 6.16234 11.8898 5.87959 12.4788C5.74613 12.4503 5.60729 12.4348 5.46446 12.4348C5.07207 12.4348 4.70884 12.5487 4.41113 12.7417C4.6809 13.2395 5.15626 13.6863 5.8344 14.077Z" fill="#0052B4"/>
</g>
<defs>
<clipPath id="clip0_5_1502">
<rect width="24" height="22" fill="white"/>
</clipPath>
</defs>
</svg>
